<svg width="23" height="29" viewBox="0 0 23 29" fill="none" xmlns="http://www.w3.org/2000/svg">
<path d="M12.5459 1.5C12.5459 0.671573 11.8744 3.62117e-08 11.0459 0C10.2175 -3.62117e-08 9.54593 0.671573 9.54593 1.5L11.0459 1.5L12.5459 1.5ZM9.98527 28.5607C10.5711 29.1464 11.5208 29.1464 12.1066 28.5607L21.6525 19.0147C22.2383 18.4289 22.2383 17.4792 21.6525 16.8934C21.0667 16.3076 20.117 16.3076 19.5312 16.8934L11.0459 25.3787L2.56065 16.8934C1.97486 16.3076 1.02511 16.3076 0.439327 16.8934C-0.14646 17.4792 -0.14646 18.4289 0.439326 19.0147L9.98527 28.5607ZM11.0459 1.5L9.54593 1.5L9.54593 27.5L11.0459 27.5L12.5459 27.5L12.5459 1.5L11.0459 1.5Z" fill="#3A1313"/>
</svg>
